<svg width="184" height="43" viewBox="0 0 184 43" fill="none" xmlns="http://www.w3.org/2000/svg">
<path d="M42.3575 37.6573L41.6029 33.378L45.6862 34.8642L42.3575 37.6573Z" fill="white"/>
<path d="M65.8027 15.0195L69.3182 12.4654L69.7724 16.7869L65.8027 15.0195Z" fill="white"/>
<path d="M67.7389 36C61.7389 44.3677 48.8817 43.6236 43.7389 36" stroke="white" stroke-width="2" stroke-linecap="round"/>
<path d="M43.7389 14C49.7389 5.63228 62.596 6.37637 67.7389 14" stroke="white" stroke-width="2" stroke-linecap="round"/>
<circle cx="55.2389" cy="24.5" r="9.5" fill="#E7E7E7"/>
<path d="M56.073 15.5L56.073 14.75L54.573 14.75L54.573 15.5L56.073 15.5ZM54.573 17.8551C54.573 18.2694 54.9088 18.6051 55.323 18.6051C55.7372 18.6051 56.073 18.2694 56.073 17.8551L54.573 17.8551ZM54.573 15.5L54.573 17.8551L56.073 17.8551L56.073 15.5L54.573 15.5Z" fill="#00C8A4"/>
<path d="M48.594 25.1659C49.0082 25.1659 49.344 24.8301 49.344 24.4159C49.344 24.0017 49.0082 23.6659 48.594 23.6659V25.1659ZM46.2389 23.6659L45.4889 23.6659V25.1659L46.2389 25.1659V23.6659ZM48.594 23.6659L46.2389 23.6659V25.1659L48.594 25.1659V23.6659Z" fill="#00C8A4"/>
<path d="M64.2389 25.1659H64.9889V23.6659H64.2389V25.1659ZM61.8837 23.6659C61.4695 23.6659 61.1337 24.0017 61.1337 24.4159C61.1337 24.8301 61.4695 25.1659 61.8837 25.1659V23.6659ZM64.2389 23.6659L61.8837 23.6659V25.1659L64.2389 25.1659V23.6659Z" fill="#00C8A4"/>
<path d="M56.073 31.1449C56.073 30.7307 55.7372 30.3949 55.323 30.3949C54.9088 30.3949 54.573 30.7307 54.573 31.1449L56.073 31.1449ZM54.573 33.5L54.573 34.25L56.073 34.25L56.073 33.5L54.573 33.5ZM54.573 31.1449L54.573 33.5L56.073 33.5L56.073 31.1449L54.573 31.1449Z" fill="#00C8A4"/>
<path d="M55.2389 20.5L55.2389 25.5" stroke="#00C8A4" stroke-width="1.5" stroke-linecap="round"/>
<path d="M63.4363 20.6916L64.0858 20.3166L63.3358 19.0175L62.6863 19.3925L63.4363 20.6916ZM61.8122 19.8972C61.4535 20.1043 61.3305 20.563 61.5377 20.9217C61.7448 21.2804 62.2035 21.4034 62.5622 21.1962L61.8122 19.8972ZM62.6863 19.3925L61.8122 19.8972L62.5622 21.1962L63.4363 20.6916L62.6863 19.3925Z" fill="#00C8A4"/>
<path d="M51.7598 31.7498C51.9731 31.3948 51.8582 30.934 51.5032 30.7207C51.1481 30.5073 50.6874 30.6222 50.474 30.9773L51.7598 31.7498ZM49.9542 31.8425L49.5679 32.4853L50.8537 33.2579L51.2399 32.615L49.9542 31.8425ZM50.474 30.9773L49.9542 31.8425L51.2399 32.615L51.7598 31.7498L50.474 30.9773Z" fill="#00C8A4"/>
<path d="M48.6647 29.1049C49.0246 28.8998 49.1501 28.4418 48.945 28.0819C48.7399 27.722 48.2819 27.5966 47.922 27.8017L48.6647 29.1049ZM47.0451 28.3015L46.3935 28.6728L47.1362 29.976L47.7878 29.6047L47.0451 28.3015ZM47.922 27.8017L47.0451 28.3015L47.7878 29.6047L48.6647 29.1049L47.922 27.8017Z" fill="#00C8A4"/>
<path d="M60.5866 17.1703L60.9616 16.5208L59.6626 15.7708L59.2876 16.4203L60.5866 17.1703ZM58.7829 17.2945C58.5758 17.6532 58.6987 18.1119 59.0574 18.319C59.4161 18.5261 59.8748 18.4032 60.0819 18.0445L58.7829 17.2945ZM59.2876 16.4203L58.7829 17.2945L60.0819 18.0445L60.5866 17.1703L59.2876 16.4203Z" fill="#00C8A4"/>
<path d="M51.094 16.4708L50.719 15.8213L49.42 16.5713L49.795 17.2208L51.094 16.4708ZM50.2996 18.0949C50.5067 18.4536 50.9654 18.5765 51.3241 18.3694C51.6829 18.1623 51.8058 17.7036 51.5987 17.3449L50.2996 18.0949ZM49.795 17.2208L50.2996 18.0949L51.5987 17.3449L51.094 16.4708L49.795 17.2208Z" fill="#00C8A4"/>
<path d="M60.0099 30.9381C59.8028 30.5794 59.3441 30.4565 58.9854 30.6636C58.6266 30.8707 58.5037 31.3294 58.7108 31.6881L60.0099 30.9381ZM59.2323 32.5913L59.6073 33.2409L60.9064 32.4909L60.5314 31.8413L59.2323 32.5913ZM58.7108 31.6881L59.2323 32.5913L60.5314 31.8413L60.0099 30.9381L58.7108 31.6881Z" fill="#00C8A4"/>
<path d="M62.4325 28.0108C62.0812 27.7913 61.6185 27.8982 61.399 28.2494C61.1795 28.6007 61.2863 29.0634 61.6376 29.2829L62.4325 28.0108ZM62.5221 29.8356L63.1581 30.233L63.953 28.961L63.317 28.5635L62.5221 29.8356ZM61.6376 29.2829L62.5221 29.8356L63.317 28.5635L62.4325 28.0108L61.6376 29.2829Z" fill="#00C8A4"/>
<path d="M47.7363 19.4324L47.0741 19.0803L46.3699 20.4047L47.0321 20.7568L47.7363 19.4324ZM47.9233 21.2307C48.2891 21.4251 48.7432 21.2863 48.9376 20.9206C49.1321 20.5548 48.9933 20.1007 48.6275 19.9063L47.9233 21.2307ZM47.0321 20.7568L47.9233 21.2307L48.6275 19.9063L47.7363 19.4324L47.0321 20.7568Z" fill="#00C8A4"/>
<path d="M67.7389 24.5C67.7389 31.4036 62.1424 37 55.2389 37C48.3353 37 42.7389 31.4036 42.7389 24.5C42.7389 17.5964 48.3353 12 55.2389 12C62.1424 12 67.7389 17.5964 67.7389 24.5ZM44.9717 24.5C44.9717 30.1704 49.5684 34.7672 55.2389 34.7672C60.9093 34.7672 65.5061 30.1704 65.5061 24.5C65.5061 18.8296 60.9093 14.2328 55.2389 14.2328C49.5684 14.2328 44.9717 18.8296 44.9717 24.5Z" fill="#00C8A4"/>
<path d="M17.9716 13.9162C17.6852 13.5821 17.3033 13.2599 16.826 12.9496C16.3487 12.6393 15.8117 12.3649 15.215 12.1262C14.6183 11.8637 13.962 11.6608 13.246 11.5176C12.5539 11.3505 11.8259 11.267 11.0622 11.267C9.10513 11.267 7.6612 11.6369 6.7304 12.3768C5.7996 13.1167 5.3342 14.131 5.3342 15.4198C5.3342 16.3267 5.57287 17.0427 6.0502 17.5678C6.52753 18.0929 7.25547 18.5225 8.234 18.8566C9.2364 19.1907 10.5013 19.5368 12.0288 19.8948C13.7949 20.2767 15.3224 20.7421 16.6112 21.291C17.9 21.8399 18.8905 22.5798 19.5826 23.5106C20.2747 24.4175 20.6208 25.6347 20.6208 27.1622C20.6208 28.3794 20.3821 29.4415 19.9048 30.3484C19.4513 31.2315 18.8069 31.9713 17.9716 32.568C17.1363 33.1408 16.1577 33.5704 15.036 33.8568C13.9143 34.1193 12.6971 34.2506 11.3844 34.2506C10.0956 34.2506 8.83067 34.1193 7.5896 33.8568C6.3724 33.5704 5.21487 33.1647 4.117 32.6396C3.01913 32.1145 1.99287 31.4582 1.0382 30.6706L2.5776 27.9498C2.95947 28.3555 3.44873 28.7613 4.0454 29.167C4.66593 29.5489 5.35807 29.9069 6.1218 30.241C6.9094 30.5751 7.75667 30.8496 8.6636 31.0644C9.57053 31.2553 10.5013 31.3508 11.456 31.3508C13.2699 31.3508 14.678 31.0286 15.6804 30.3842C16.6828 29.7159 17.184 28.7493 17.184 27.4844C17.184 26.5297 16.8976 25.766 16.3248 25.1932C15.7759 24.6204 14.9525 24.1431 13.8546 23.7612C12.7567 23.3793 11.4202 22.9975 9.845 22.6156C8.1266 22.186 6.68267 21.7206 5.5132 21.2194C4.34373 20.6943 3.46067 20.0141 2.864 19.1788C2.2912 18.3435 2.0048 17.2575 2.0048 15.921C2.0048 14.2981 2.3986 12.9257 3.1862 11.804C3.9738 10.6823 5.05973 9.835 6.444 9.2622C7.82827 8.6894 9.39153 8.403 11.1338 8.403C12.2794 8.403 13.3415 8.52233 14.32 8.761C15.3224 8.99967 16.2532 9.3338 17.1124 9.7634C17.9716 10.193 18.7592 10.7061 19.4752 11.3028L17.9716 13.9162ZM32.6272 34.358C31.2191 34.358 29.9303 34.1074 28.7608 33.6062C27.6152 33.0811 26.6128 32.3651 25.7536 31.4582C24.9183 30.5513 24.262 29.5131 23.7846 28.3436C23.3312 27.1741 23.1044 25.9331 23.1044 24.6204C23.1044 22.8543 23.4982 21.2433 24.2858 19.7874C25.0734 18.3315 26.1832 17.174 27.6152 16.3148C29.0472 15.4317 30.706 14.9902 32.5914 14.9902C34.4292 14.9902 36.0282 15.4079 37.3886 16.2432C38.7729 17.0547 39.7992 18.1525 40.4674 19.5368L37.3886 20.5034C36.9113 19.6203 36.243 18.9401 35.3838 18.4628C34.5246 17.9616 33.57 17.711 32.5198 17.711C31.3742 17.711 30.3241 18.0093 29.3694 18.606C28.4386 19.2027 27.6988 20.0261 27.1498 21.0762C26.6009 22.1025 26.3264 23.2839 26.3264 24.6204C26.3264 25.9331 26.6009 27.1264 27.1498 28.2004C27.7226 29.2505 28.4744 30.0859 29.4052 30.7064C30.3599 31.3269 31.41 31.6372 32.5556 31.6372C33.2955 31.6372 33.9996 31.5059 34.6678 31.2434C35.36 30.9809 35.9566 30.6348 36.4578 30.2052C36.9829 29.7517 37.3409 29.2625 37.5318 28.7374L40.6106 29.6682C40.2288 30.5751 39.644 31.3866 38.8564 32.1026C38.0927 32.7947 37.1738 33.3437 36.0998 33.7494C35.0497 34.1551 33.8922 34.358 32.6272 34.358ZM81.2257 18.069C79.6505 18.0929 78.2543 18.4986 77.0371 19.2862C75.8438 20.0499 74.9965 21.112 74.4953 22.4724V34H71.3449V15.3124H74.2805V19.6442C74.9249 18.3554 75.7722 17.3172 76.8223 16.5296C77.8963 15.7181 79.0181 15.2647 80.1875 15.1692C80.4262 15.1692 80.6291 15.1692 80.7961 15.1692C80.9632 15.1692 81.1064 15.1811 81.2257 15.205V18.069ZM92.1657 34.358C90.7576 34.358 89.4688 34.1074 88.2993 33.6062C87.1537 33.0811 86.1513 32.3771 85.2921 31.494C84.4568 30.5871 83.8004 29.5489 83.3231 28.3794C82.8696 27.2099 82.6429 25.9689 82.6429 24.6562C82.6429 22.8901 83.0486 21.2791 83.8601 19.8232C84.6716 18.3673 85.7933 17.1979 87.2253 16.3148C88.6812 15.4317 90.3399 14.9902 92.2015 14.9902C94.087 14.9902 95.7218 15.4437 97.1061 16.3506C98.5142 17.2337 99.6002 18.4031 100.364 19.859C101.152 21.291 101.545 22.8423 101.545 24.513C101.545 24.7517 101.533 24.9903 101.51 25.229C101.51 25.4438 101.498 25.6109 101.474 25.7302H85.9723C86.0678 26.9474 86.4019 28.0333 86.9747 28.988C87.5714 29.9188 88.3351 30.6587 89.2659 31.2076C90.1967 31.7327 91.1991 31.9952 92.2731 31.9952C93.4187 31.9952 94.4927 31.7088 95.4951 31.136C96.5214 30.5632 97.2254 29.8114 97.6073 28.8806L100.328 29.6324C99.9224 30.5393 99.3138 31.3508 98.5023 32.0668C97.7147 32.7828 96.772 33.3437 95.6741 33.7494C94.6001 34.1551 93.4306 34.358 92.1657 34.358ZM85.8649 23.5464H98.6097C98.5142 22.3292 98.1682 21.2552 97.5715 20.3244C96.9748 19.3936 96.2111 18.6657 95.2803 18.1406C94.3495 17.6155 93.3232 17.353 92.2015 17.353C91.1036 17.353 90.0893 17.6155 89.1585 18.1406C88.2277 18.6657 87.464 19.3936 86.8673 20.3244C86.2945 21.2552 85.9604 22.3292 85.8649 23.5464Z" fill="#00C8A4"/>
<path d="M120.549 13.3434C120.191 12.9377 119.773 12.5797 119.296 12.2694C118.818 11.9353 118.281 11.6489 117.685 11.4102C117.088 11.1715 116.444 10.9806 115.751 10.8374C115.083 10.6942 114.367 10.6226 113.603 10.6226C111.384 10.6226 109.749 11.0522 108.699 11.9114C107.673 12.7467 107.159 13.8923 107.159 15.3482C107.159 16.3506 107.398 17.1382 107.875 17.711C108.377 18.2838 109.152 18.7492 110.202 19.1072C111.253 19.4652 112.589 19.8351 114.212 20.217C116.026 20.5989 117.589 21.0523 118.902 21.5774C120.215 22.1025 121.229 22.8185 121.945 23.7254C122.661 24.6085 123.019 25.8137 123.019 27.3412C123.019 28.5107 122.792 29.525 122.339 30.3842C121.885 31.2434 121.253 31.9594 120.441 32.5322C119.63 33.105 118.663 33.5346 117.541 33.821C116.42 34.0835 115.191 34.2148 113.854 34.2148C112.541 34.2148 111.276 34.0835 110.059 33.821C108.866 33.5346 107.732 33.1289 106.658 32.6038C105.584 32.0549 104.582 31.3627 103.651 30.5274L104.904 28.4868C105.358 28.9641 105.895 29.4176 106.515 29.8472C107.159 30.2529 107.864 30.6229 108.627 30.957C109.415 31.2911 110.25 31.5537 111.133 31.7446C112.04 31.9117 112.971 31.9952 113.926 31.9952C115.954 31.9952 117.53 31.6253 118.651 30.8854C119.797 30.1455 120.37 29.0477 120.37 27.5918C120.37 26.5417 120.083 25.7063 119.51 25.0858C118.938 24.4414 118.078 23.9163 116.933 23.5106C115.787 23.1049 114.379 22.7111 112.708 22.3292C110.942 21.9235 109.451 21.47 108.233 20.9688C107.016 20.4676 106.097 19.8113 105.477 18.9998C104.88 18.1645 104.582 17.0666 104.582 15.7062C104.582 14.131 104.964 12.8064 105.727 11.7324C106.515 10.6345 107.589 9.81113 108.949 9.2622C110.31 8.6894 111.873 8.403 113.639 8.403C114.761 8.403 115.799 8.52233 116.754 8.761C117.732 8.9758 118.627 9.298 119.439 9.7276C120.274 10.1572 121.05 10.6942 121.766 11.3386L120.549 13.3434ZM127.416 39.728C127.75 39.7519 128.072 39.7638 128.382 39.7638C128.693 39.7877 128.919 39.7757 129.063 39.728C129.349 39.6803 129.624 39.5132 129.886 39.2268C130.149 38.9404 130.459 38.3915 130.817 37.58C131.175 36.7685 131.676 35.5752 132.32 34L124.194 15.3482H126.771L133.609 31.494L139.91 15.3482H142.344L132.678 39.4058C132.511 39.8593 132.261 40.2769 131.927 40.6588C131.593 41.0645 131.175 41.3748 130.674 41.5896C130.196 41.8283 129.6 41.9595 128.884 41.9834C128.669 42.0073 128.442 42.0073 128.203 41.9834C127.989 41.9834 127.726 41.9595 127.416 41.9118V39.728ZM161.426 34H158.991V23.5822C158.991 21.3865 158.669 19.7874 158.025 18.785C157.38 17.7587 156.366 17.2456 154.982 17.2456C154.027 17.2456 153.084 17.4843 152.153 17.9616C151.223 18.4151 150.399 19.0475 149.683 19.859C148.991 20.6466 148.49 21.5535 148.18 22.5798V34H145.745V15.3482H147.965V19.5726C148.466 18.6657 149.122 17.8781 149.934 17.2098C150.745 16.5177 151.664 15.9807 152.69 15.5988C153.717 15.2169 154.779 15.026 155.877 15.026C156.903 15.026 157.774 15.2169 158.49 15.5988C159.206 15.9807 159.779 16.5296 160.208 17.2456C160.638 17.9377 160.948 18.785 161.139 19.7874C161.33 20.7659 161.426 21.8638 161.426 23.081V34ZM174.708 34.358C173.347 34.358 172.094 34.1074 170.949 33.6062C169.827 33.0811 168.836 32.3651 167.977 31.4582C167.142 30.5513 166.486 29.5131 166.008 28.3436C165.555 27.1741 165.328 25.9331 165.328 24.6204C165.328 22.8543 165.722 21.2433 166.509 19.7874C167.297 18.3315 168.395 17.174 169.803 16.3148C171.211 15.4556 172.834 15.026 174.672 15.026C176.414 15.026 177.954 15.4317 179.29 16.2432C180.627 17.0308 181.617 18.1048 182.261 19.4652L179.899 20.217C179.374 19.2623 178.634 18.5225 177.679 17.9974C176.748 17.4485 175.71 17.174 174.564 17.174C173.323 17.174 172.19 17.4962 171.163 18.1406C170.137 18.785 169.314 19.6681 168.693 20.7898C168.097 21.9115 167.798 23.1884 167.798 24.6204C167.798 26.0285 168.109 27.3054 168.729 28.451C169.35 29.5966 170.173 30.5155 171.199 31.2076C172.226 31.8759 173.359 32.21 174.6 32.21C175.412 32.21 176.187 32.0668 176.927 31.7804C177.691 31.494 178.347 31.1121 178.896 30.6348C179.469 30.1336 179.851 29.5966 180.042 29.0238L182.44 29.7398C182.106 30.6229 181.545 31.4224 180.758 32.1384C179.994 32.8305 179.087 33.3795 178.037 33.7852C177.011 34.1671 175.901 34.358 174.708 34.358Z" fill="white"/>
</svg>
